<svg width="63" height="30" viewBox="0 0 63 30" fill="none" xmlns="http://www.w3.org/2000/svg">
<path d="M20.5 13.5C22.1547 13.5 23.5 12.1547 23.5 10.5C23.5 8.84531 22.1547 7.5 20.5 7.5C18.8453 7.5 17.5 8.84531 17.5 10.5C17.5 12.1547 18.8453 13.5 20.5 13.5ZM41.5 13.5C43.1547 13.5 44.5 12.1547 44.5 10.5C44.5 8.84531 43.1547 7.5 41.5 7.5C39.8453 7.5 38.5 8.84531 38.5 10.5C38.5 12.1547 39.8453 13.5 41.5 13.5ZM43 15H40C39.175 15 38.4297 15.3328 37.8859 15.8719C39.775 16.9078 41.1156 18.7781 41.4062 21H44.5C45.3297 21 46 20.3297 46 19.5V18C46 16.3453 44.6547 15 43 15ZM31 15C33.9016 15 36.25 12.6516 36.25 9.75C36.25 6.84844 33.9016 4.5 31 4.5C28.0984 4.5 25.75 6.84844 25.75 9.75C25.75 12.6516 28.0984 15 31 15ZM34.6 16.5H34.2109C33.2359 16.9688 32.1531 17.25 31 17.25C29.8469 17.25 28.7688 16.9688 27.7891 16.5H27.4C24.4187 16.5 22 18.9188 22 21.9V23.25C22 24.4922 23.0078 25.5 24.25 25.5H37.75C38.9922 25.5 40 24.4922 40 23.25V21.9C40 18.9188 37.5812 16.5 34.6 16.5ZM24.1141 15.8719C23.5703 15.3328 22.825 15 22 15H19C17.3453 15 16 16.3453 16 18V19.5C16 20.3297 16.6703 21 17.5 21H20.5891C20.8844 18.7781 22.225 16.9078 24.1141 15.8719Z" fill="#FF6464"/>
</svg>
