<svg width="16" height="16" viewBox="0 0 16 16" fill="none" xmlns="http://www.w3.org/2000/svg">
<g clip-path="url(#clip0_2_142)">
<path d="M15.5232 8.94118H8.54412L13.1921 13.5891C13.3697 13.7668 13.6621 13.7812 13.8447 13.6091C14.9829 12.5368 15.7659 11.0912 15.9956 9.46618C16.035 9.18794 15.8041 8.94118 15.5232 8.94118ZM15.0576 7.0353C14.8153 3.52177 12.0076 0.71412 8.49412 0.471767C8.22588 0.453237 8 0.679414 8 0.948237V7.52941H14.5815C14.8503 7.52941 15.0762 7.30353 15.0576 7.0353ZM6.58823 8.94118V1.96206C6.58823 1.68118 6.34147 1.4503 6.06353 1.48971C2.55853 1.985 -0.120589 5.04706 0.00411708 8.71677C0.132352 12.4856 3.37735 15.5762 7.14794 15.5288C8.63029 15.5103 10 15.0326 11.1262 14.2338C11.3585 14.0691 11.3738 13.7271 11.1724 13.5256L6.58823 8.94118Z" fill="#FF6464"/>
</g>
<defs>
<clipPath id="clip0_2_142">
<rect width="16" height="16" fill="white"/>
</clipPath>
</defs>
</svg>
