<svg width="30" height="30" viewBox="0 0 30 30" fill="none" xmlns="http://www.w3.org/2000/svg">
<g clip-path="url(#clip0_2_105)">
<path d="M27.1875 1.87501H20.1562L19.6055 0.779307C19.4888 0.545058 19.3091 0.348012 19.0865 0.210338C18.864 0.0726632 18.6074 -0.00017742 18.3457 1.02731e-05H11.6484C11.3873 -0.000993469 11.1312 0.0715755 10.9095 0.209403C10.6877 0.34723 10.5092 0.544742 10.3945 0.779307L9.84375 1.87501H2.8125C2.56386 1.87501 2.3254 1.97378 2.14959 2.1496C1.97377 2.32541 1.875 2.56387 1.875 2.81251L1.875 4.68751C1.875 4.93615 1.97377 5.17461 2.14959 5.35042C2.3254 5.52624 2.56386 5.62501 2.8125 5.62501H27.1875C27.4361 5.62501 27.6746 5.52624 27.8504 5.35042C28.0262 5.17461 28.125 4.93615 28.125 4.68751V2.81251C28.125 2.56387 28.0262 2.32541 27.8504 2.1496C27.6746 1.97378 27.4361 1.87501 27.1875 1.87501ZM4.99219 27.3633C5.0369 28.0773 5.35205 28.7475 5.87347 29.2373C6.39489 29.7272 7.0834 29.9999 7.79883 30H22.2012C22.9166 29.9999 23.6051 29.7272 24.1265 29.2373C24.648 28.7475 24.9631 28.0773 25.0078 27.3633L26.25 7.50001H3.75L4.99219 27.3633Z" fill="#FF6464"/>
</g>
<defs>
<clipPath id="clip0_2_105">
<rect width="30" height="30" fill="white"/>
</clipPath>
</defs>
</svg>
